<svg width="20" height="18" viewBox="0 0 20 18" fill="none" xmlns="http://www.w3.org/2000/svg">
<path fill-rule="evenodd" clip-rule="evenodd" d="M7 2C8.103 2 9 2.897 9 4C9 5.103 8.103 6 7 6C5.897 6 5 5.103 5 4C5 2.897 5.897 2 7 2ZM1 5C0.734784 5 0.48043 4.89464 0.292893 4.70711C0.105357 4.51957 0 4.26522 0 4C0 3.73478 0.105357 3.48043 0.292893 3.29289C0.48043 3.10536 0.734784 3 1 3H3.142C3.589 1.28 5.142 0 7 0C8.858 0 10.411 1.28 10.858 3H19C19.2652 3 19.5196 3.10536 19.7071 3.29289C19.8946 3.48043 20 3.73478 20 4C20 4.26522 19.8946 4.51957 19.7071 4.70711C19.5196 4.89464 19.2652 5 19 5H10.858C10.411 6.72 8.858 8 7 8C5.142 8 3.589 6.72 3.142 5H1ZM13 16C14.103 16 15 15.103 15 14C15 12.897 14.103 12 13 12C11.897 12 11 12.897 11 14C11 15.103 11.897 16 13 16ZM19 13C19.2652 13 19.5196 13.1054 19.7071 13.2929C19.8946 13.4804 20 13.7348 20 14C20 14.2652 19.8946 14.5196 19.7071 14.7071C19.5196 14.8946 19.2652 15 19 15H16.858C16.411 16.72 14.858 18 13 18C11.142 18 9.589 16.72 9.142 15H1C0.734784 15 0.48043 14.8946 0.292893 14.7071C0.105357 14.5196 0 14.2652 0 14C0 13.7348 0.105357 13.4804 0.292893 13.2929C0.48043 13.1054 0.734784 13 1 13H9.142C9.589 11.28 11.142 10 13 10C14.858 10 16.411 11.28 16.858 13H19Z" fill="white"/>
</svg>
