<svg width="19" height="19" viewBox="0 0 19 19" fill="none" xmlns="http://www.w3.org/2000/svg">
<mask id="path-1-inside-1_20_134" fill="white">
<path d="M5.78261 4.75V2.375C5.78261 1.74511 6.0147 1.14102 6.42782 0.695621C6.84095 0.250222 7.40126 0 7.98551 0H16.7971C17.3813 0 17.9417 0.250222 18.3548 0.695621C18.7679 1.14102 19 1.74511 19 2.375V16.625C19 17.2549 18.7679 17.859 18.3548 18.3044C17.9417 18.7498 17.3813 19 16.7971 19H8.42609C7.20954 19 5.78261 17.9366 5.78261 16.625V14.25"/>
</mask>
<path d="M5.78261 2.375H4.44261H5.78261ZM16.7971 0V-1.34V0ZM7.12261 4.75V2.375H4.44261V4.75H7.12261ZM7.12261 2.375C7.12261 2.06933 7.23617 1.79458 7.41027 1.60688L5.44537 -0.215637C4.79323 0.487456 4.44261 1.42089 4.44261 2.375H7.12261ZM7.41027 1.60688C7.58122 1.42257 7.79057 1.34 7.98551 1.34V-1.34C7.01196 -1.34 6.10067 -0.922128 5.44537 -0.215637L7.41027 1.60688ZM7.98551 1.34H16.7971V-1.34H7.98551V1.34ZM16.7971 1.34C16.992 1.34 17.2014 1.42257 17.3723 1.60688L19.3372 -0.215637C18.6819 -0.922128 17.7707 -1.34 16.7971 -1.34V1.34ZM17.3723 1.60688C17.5464 1.79458 17.66 2.06933 17.66 2.375H20.34C20.34 1.42089 19.9894 0.487456 19.3372 -0.215637L17.3723 1.60688ZM17.66 2.375V16.625H20.34V2.375H17.66ZM17.66 16.625C17.66 16.9307 17.5464 17.2054 17.3723 17.3931L19.3372 19.2156C19.9894 18.5125 20.34 17.5791 20.34 16.625H17.66ZM17.3723 17.3931C17.2014 17.5774 16.992 17.66 16.7971 17.66V20.34C17.7707 20.34 18.6819 19.9221 19.3372 19.2156L17.3723 17.3931ZM16.7971 17.66H8.42609V20.34H16.7971V17.66ZM8.42609 17.66C8.17999 17.66 7.81713 17.5377 7.51286 17.2807C7.21164 17.0262 7.12261 16.778 7.12261 16.625H4.44261C4.44261 17.7836 5.06704 18.7228 5.78343 19.328C6.49675 19.9306 7.45563 20.34 8.42609 20.34V17.66ZM7.12261 16.625V14.25H4.44261V16.625H7.12261Z" fill="white" mask="url(#path-1-inside-1_20_134)"/>
<path d="M11.3357 14.0435L15.6957 9.08701L11.3357 4.13049M0 9.08701H14.9147" stroke="white" stroke-width="1.34"/>
</svg>
