<svg width="17" height="16" viewBox="0 0 17 16" fill="none" xmlns="http://www.w3.org/2000/svg">
<path d="M1.88818 0.149464C1.70531 0.060151 1.49275 0.00885447 1.27318 0.00104696C1.0536 -0.00676056 0.835251 0.0292137 0.641418 0.105132C0.447585 0.181051 0.285542 0.294065 0.172578 0.432118C0.0596144 0.570171 -3.28869e-05 0.728083 1.36031e-08 0.889007V15.111C-3.28869e-05 15.2719 0.0596144 15.4298 0.172578 15.5679C0.285542 15.7059 0.447585 15.819 0.641418 15.8949C0.835251 15.9708 1.0536 16.0068 1.27318 15.999C1.49275 15.9911 1.70531 15.9399 1.88818 15.8505L16.4594 8.73954C16.6257 8.65837 16.762 8.5484 16.8563 8.41939C16.9507 8.29038 17 8.14632 17 8C17 7.85368 16.9507 7.70962 16.8563 7.58061C16.762 7.4516 16.6257 7.34163 16.4594 7.26046L1.88818 0.149464ZM2.42853 13.4497V2.55031L13.5998 8L2.42853 13.4497Z" fill="#A0A0A0"/>
</svg>
