<svg width="18" height="17" viewBox="0 0 18 17" fill="none" xmlns="http://www.w3.org/2000/svg">
<path d="M0 4.58333V0.916667C0 0.673552 0.0921872 0.440394 0.256282 0.268485C0.420376 0.0965771 0.642936 0 0.875 0H6.125C6.35706 0 6.57962 0.0965771 6.74372 0.268485C6.90781 0.440394 7 0.673552 7 0.916667C7 1.15978 6.90781 1.39294 6.74372 1.56485C6.57962 1.73676 6.35706 1.83333 6.125 1.83333H1.75V4.58333C1.75 4.82645 1.65781 5.05961 1.49372 5.23151C1.32962 5.40342 1.10706 5.5 0.875 5.5C0.642936 5.5 0.420376 5.40342 0.256282 5.23151C0.0921872 5.05961 0 4.82645 0 4.58333ZM16.625 0H11.375C11.1429 0 10.9204 0.0965771 10.7563 0.268485C10.5922 0.440394 10.5 0.673552 10.5 0.916667C10.5 1.15978 10.5922 1.39294 10.7563 1.56485C10.9204 1.73676 11.1429 1.83333 11.375 1.83333H15.75V4.58333C15.75 4.82645 15.8422 5.05961 16.0063 5.23151C16.1704 5.40342 16.3929 5.5 16.625 5.5C16.8571 5.5 17.0796 5.40342 17.2437 5.23151C17.4078 5.05961 17.5 4.82645 17.5 4.58333V0.916667C17.5 0.673552 17.4078 0.440394 17.2437 0.268485C17.0796 0.0965771 16.8571 0 16.625 0ZM0.875 16.5H6.125C6.35706 16.5 6.57962 16.4034 6.74372 16.2315C6.90781 16.0596 7 15.8264 7 15.5833C7 15.3402 6.90781 15.1071 6.74372 14.9352C6.57962 14.7632 6.35706 14.6667 6.125 14.6667H1.75V11.9167C1.75 11.6736 1.65781 11.4404 1.49372 11.2685C1.32962 11.0966 1.10706 11 0.875 11C0.642936 11 0.420376 11.0966 0.256282 11.2685C0.0921872 11.4404 0 11.6736 0 11.9167V15.5833C0 15.8264 0.0921872 16.0596 0.256282 16.2315C0.420376 16.4034 0.642936 16.5 0.875 16.5ZM16.625 11C16.3929 11 16.1704 11.0966 16.0063 11.2685C15.8422 11.4404 15.75 11.6736 15.75 11.9167V14.6667H11.375C11.1429 14.6667 10.9204 14.7632 10.7563 14.9352C10.5922 15.1071 10.5 15.3402 10.5 15.5833C10.5 15.8264 10.5922 16.0596 10.7563 16.2315C10.9204 16.4034 11.1429 16.5 11.375 16.5H16.625C16.8571 16.5 17.0796 16.4034 17.2437 16.2315C17.4078 16.0596 17.5 15.8264 17.5 15.5833V11.9167C17.5 11.6736 17.4078 11.4404 17.2437 11.2685C17.0796 11.0966 16.8571 11 16.625 11ZM3.5 5.5V11C3.5 11.2431 3.59219 11.4763 3.75628 11.6482C3.92038 11.8201 4.14294 11.9167 4.375 11.9167H13.125C13.3571 11.9167 13.5796 11.8201 13.7437 11.6482C13.9078 11.4763 14 11.2431 14 11V5.5C14 5.25689 13.9078 5.02373 13.7437 4.85182C13.5796 4.67991 13.3571 4.58333 13.125 4.58333H4.375C4.14294 4.58333 3.92038 4.67991 3.75628 4.85182C3.59219 5.02373 3.5 5.25689 3.5 5.5Z" fill="#A0A0A0"/>
</svg>
